<svg xmlns="http://www.w3.org/2000/svg" viewBox="0 0 200 430">
  <g fill="#E4E7EC" stroke="#C7CDD9" stroke-width="2" stroke-linejoin="round">
    <circle cx="100" cy="34" r="22"/>
    <rect x="90" y="53" width="20" height="15" rx="6"/>
    <path d="M64,78 C64,68 74,63 86,63 L114,63 C126,63 136,68 136,78 L132,148 C130,176 120,194 108,202 L108,212 L92,212 L92,202 C80,194 70,176 68,148 Z"/>
    <polyline points="67,86 46,168 42,246" fill="none" stroke-linecap="round"/>
    <polyline points="133,86 154,168 158,246" fill="none" stroke-linecap="round"/>
    <circle cx="42" cy="254" r="14"/>
    <circle cx="158" cy="254" r="14"/>
    <polyline points="90,210 82,306 80,392" fill="none" stroke-linecap="round"/>
    <polyline points="110,210 118,306 120,392" fill="none" stroke-linecap="round"/>
    <ellipse cx="76" cy="402" rx="17" ry="9"/>
    <ellipse cx="124" cy="402" rx="17" ry="9"/>
  </g>
  <line x1="100" y1="66" x2="100" y2="200" stroke="#C7CDD9" stroke-width="2"/>
  <g style="stroke:none">
    <path d="M79,64 L121,64 L110,92 L90,92 Z" fill="#FF8C69" fill-opacity="0.88"/>
    <path d="M63,96 C58,120 59,146 71,164 L87,150 C80,131 78,111 81,96 Z" fill="#FF8C69" fill-opacity="0.8"/>
    <path d="M137,96 C142,120 141,146 129,164 L113,150 C120,131 122,111 119,96 Z" fill="#FF8C69" fill-opacity="0.8"/>
    <rect x="89" y="164" width="22" height="38" rx="8" fill="#FF8C69" fill-opacity="0.75"/>
  </g>
</svg>
